# xmcd
# Track frame offsets:
# 150
# 20498
# 38005
# 63616
# 79573
# 101726
# 122737
# 141140
# 168605
# 183886
# 209893
# 225203
# 239952
# 251247
#
# Disc length: 3505 seconds
# Revision: 0
# Processed by: cddbd v1.5.2PL0 Copyright (c) Steve Scherf et al.
# Submitted via: VisiTrax 2.11.2.271 - For more info visit www.synapsa.com
#
DISCID=c90daf0e
DTITLE=Redfish - Bluegrass
DYEAR=2006
DGENRE=Country
TTITLE0=Lenora Let Your Hair Hang down
TTITLE1=Dark As A Dungeon
TTITLE2=Blackjack County Chains
TTITLE3=Mexican Sun
TTITLE4=Wayfaring Stranger
TTITLE5=Carter Cane
TTITLE6=Rain and Snow
TTITLE7=Banks Of The Ohio
TTITLE8=Will Somebody Come
TTITLE9=Drugstore Truck Driving Man
TTITLE10=County Fool
TTITLE11=Carolyn The Teenage Queen
TTITLE12=Ashes Of Love
TTITLE13=Honky Tonkin
EXTD=
EXTT0=
EXTT1=
EXTT2=
EXTT3=
EXTT4=
EXTT5=
EXTT6=
EXTT7=
EXTT8=
EXTT9=
EXTT10=
EXTT11=
EXTT12=
EXTT13=
PLAYORDER=
